<svg width="96" height="36" viewBox="0 0 96 36" fill="none" xmlns="http://www.w3.org/2000/svg">
<rect x="0.5" y="0.5" width="95" height="35" rx="7.5" stroke="#EDEDED"/>
<path d="M16.1667 16.3333H17.8334C19.5 16.3333 20.3334 15.5 20.3334 13.8333V12.1667C20.3334 10.5 19.5 9.66667 17.8334 9.66667H16.1667C14.5 9.66667 13.6667 10.5 13.6667 12.1667V13.8333C13.6667 15.5 14.5 16.3333 16.1667 16.3333Z" stroke="#111111" stroke-miterlimit="10" stroke-linecap="round" stroke-linejoin="round"/>
<path d="M26.1667 16.3333H27.8334C29.5 16.3333 30.3334 15.5 30.3334 13.8333V12.1667C30.3334 10.5 29.5 9.66667 27.8334 9.66667H26.1667C24.5 9.66667 23.6667 10.5 23.6667 12.1667V13.8333C23.6667 15.5 24.5 16.3333 26.1667 16.3333Z" stroke="#111111" stroke-miterlimit="10" stroke-linecap="round" stroke-linejoin="round"/>
<path d="M26.1667 26.3333H27.8334C29.5 26.3333 30.3334 25.5 30.3334 23.8333V22.1667C30.3334 20.5 29.5 19.6667 27.8334 19.6667H26.1667C24.5 19.6667 23.6667 20.5 23.6667 22.1667V23.8333C23.6667 25.5 24.5 26.3333 26.1667 26.3333Z" stroke="#111111" stroke-miterlimit="10" stroke-linecap="round" stroke-linejoin="round"/>
<path d="M16.1667 26.3333H17.8334C19.5 26.3333 20.3334 25.5 20.3334 23.8333V22.1667C20.3334 20.5 19.5 19.6667 17.8334 19.6667H16.1667C14.5 19.6667 13.6667 20.5 13.6667 22.1667V23.8333C13.6667 25.5 14.5 26.3333 16.1667 26.3333Z" stroke="#111111" stroke-miterlimit="10" stroke-linecap="round" stroke-linejoin="round"/>
<path d="M36.144 23L39.234 14.12H41.058L44.148 23H42.876L40.05 14.702H40.224L37.404 23H36.144ZM37.914 20.276L38.202 19.238H42.084L42.372 20.276H37.914ZM45.1429 23V13.304H46.3969V23H45.1429ZM48.0843 23V13.304H49.3383V23H48.0843ZM54.0808 23V14.12H55.3528V23H54.0808ZM59.7649 23.114C59.0609 23.114 58.5149 22.936 58.1269 22.58C57.7429 22.22 57.5509 21.65 57.5509 20.87V16.472L57.7669 14.12H58.8049V20.666C58.8049 21.182 58.9089 21.544 59.1169 21.752C59.3249 21.956 59.6409 22.058 60.0649 22.058C60.1849 22.058 60.3049 22.05 60.4249 22.034C60.5449 22.018 60.6789 21.994 60.8269 21.962V22.994C60.6629 23.03 60.4889 23.058 60.3049 23.078C60.1249 23.102 59.9449 23.114 59.7649 23.114ZM56.3749 17.486V16.472H60.7489V17.486H56.3749ZM64.6526 23.12C63.9326 23.12 63.3306 23.004 62.8466 22.772C62.3666 22.54 62.0066 22.176 61.7666 21.68C61.5266 21.18 61.4066 20.532 61.4066 19.736C61.4066 18.984 61.5166 18.36 61.7366 17.864C61.9606 17.364 62.2786 16.99 62.6906 16.742C63.1026 16.494 63.5946 16.37 64.1666 16.37C64.7266 16.37 65.2006 16.494 65.5886 16.742C65.9806 16.99 66.2766 17.366 66.4766 17.87C66.6806 18.37 66.7826 19.002 66.7826 19.766V20.126H62.1026V19.334H65.8406L65.6006 19.466C65.6006 18.914 65.5446 18.474 65.4326 18.146C65.3206 17.818 65.1566 17.584 64.9406 17.444C64.7246 17.3 64.4626 17.228 64.1546 17.228C63.8466 17.228 63.5806 17.298 63.3566 17.438C63.1366 17.578 62.9666 17.812 62.8466 18.14C62.7266 18.468 62.6666 18.91 62.6666 19.466V19.934C62.6666 20.474 62.7406 20.906 62.8886 21.23C63.0366 21.55 63.2686 21.78 63.5846 21.92C63.9006 22.06 64.3106 22.13 64.8146 22.13C65.0626 22.13 65.3226 22.11 65.5946 22.07C65.8666 22.026 66.1506 21.964 66.4466 21.884V22.868C66.1226 22.956 65.8146 23.02 65.5226 23.06C65.2306 23.1 64.9406 23.12 64.6526 23.12ZM68.0648 23V16.472H69.1088L69.1988 17.192H69.2708C69.5148 16.92 69.7948 16.716 70.1108 16.58C70.4308 16.44 70.7728 16.37 71.1368 16.37C71.5088 16.37 71.8408 16.448 72.1328 16.604C72.4248 16.756 72.6548 17.004 72.8228 17.348C72.9908 17.692 73.0748 18.152 73.0748 18.728V23H71.8448V18.824C71.8448 18.312 71.7448 17.958 71.5448 17.762C71.3488 17.566 71.0868 17.468 70.7588 17.468C70.5948 17.468 70.4248 17.496 70.2487 17.552C70.0728 17.604 69.9048 17.688 69.7448 17.804C69.5848 17.92 69.4428 18.072 69.3188 18.26V23H68.0648ZM75.5588 23V18.824C75.5588 18.312 75.4548 17.958 75.2468 17.762C75.0388 17.566 74.7708 17.468 74.4428 17.468C74.2748 17.468 74.0968 17.496 73.9088 17.552C73.7248 17.608 73.5448 17.702 73.3688 17.834C73.1968 17.966 73.0488 18.144 72.9248 18.368L72.6368 17.45C72.9488 17.054 73.2928 16.776 73.6688 16.616C74.0488 16.452 74.4188 16.37 74.7788 16.37C75.1708 16.37 75.5188 16.448 75.8228 16.604C76.1308 16.76 76.3708 17.014 76.5428 17.366C76.7188 17.714 76.8068 18.18 76.8068 18.764V23H75.5588ZM80.1038 23.12C79.7638 23.12 79.4358 23.096 79.1198 23.048C78.8038 23.004 78.4998 22.938 78.2078 22.85V21.884C78.5278 21.976 78.8418 22.046 79.1498 22.094C79.4618 22.138 79.7778 22.16 80.0978 22.16C80.6218 22.16 80.9978 22.076 81.2258 21.908C81.4578 21.74 81.5738 21.504 81.5738 21.2C81.5738 20.944 81.5078 20.75 81.3758 20.618C81.2438 20.482 81.0178 20.38 80.6978 20.312L79.7618 20.126C79.1578 20.002 78.7238 19.792 78.4598 19.496C78.1998 19.196 78.0698 18.804 78.0698 18.32C78.0698 17.748 78.2938 17.28 78.7418 16.916C79.1938 16.552 79.8838 16.37 80.8118 16.37C81.0998 16.37 81.3798 16.388 81.6518 16.424C81.9238 16.456 82.1778 16.504 82.4138 16.568V17.534C82.1538 17.462 81.8958 17.41 81.6398 17.378C81.3838 17.346 81.1178 17.33 80.8418 17.33C80.4418 17.33 80.1258 17.374 79.8938 17.462C79.6658 17.546 79.5018 17.66 79.4018 17.804C79.3058 17.948 79.2578 18.11 79.2578 18.29C79.2578 18.51 79.3198 18.692 79.4438 18.836C79.5718 18.98 79.7938 19.088 80.1098 19.16L81.0458 19.34C81.6418 19.46 82.0758 19.664 82.3478 19.952C82.6238 20.236 82.7618 20.634 82.7618 21.146C82.7618 21.754 82.5338 22.236 82.0778 22.592C81.6258 22.944 80.9678 23.12 80.1038 23.12Z" fill="#1B2028"/>
</svg>
